<svg width="23" height="26" viewBox="0 0 23 26" fill="none" xmlns="http://www.w3.org/2000/svg">
<path d="M6.95455 21.2107C7.70295 22.8946 9.65727 24 11.5 24C13.3427 24 15.297 22.8946 16.0455 21.2107M18.3182 11.7162V8.09088C18.3182 4.32531 15.2656 1.27271 11.5 1.27271V1.27271C7.73442 1.27271 4.68182 4.32531 4.68182 8.09088V11.7162C4.68182 12.6635 4.27971 13.5664 3.57553 14.2002L2.31653 15.3333C0.813681 16.6858 1.29316 19.152 3.1933 19.843L3.43306 19.9302C8.6441 21.8251 14.3559 21.8251 19.5669 19.9302L19.8067 19.843C21.7068 19.152 22.1863 16.6858 20.6835 15.3333L19.4245 14.2002C18.7203 13.5664 18.3182 12.6635 18.3182 11.7162Z" stroke="#2F384C" stroke-width="2.5" stroke-linecap="round" stroke-linejoin="round"/>
</svg>
