<svg width="233" height="52" viewBox="0 0 233 52" fill="none" xmlns="http://www.w3.org/2000/svg">
<g clip-path="url(#clip0_16_947)">
<path d="M13.6343 25.0963C8.55723 44.0282 31.3759 42.3969 32.8708 26.8663C32.9075 26.4788 32.9314 26.0515 32.8085 25.7102C32.8021 25.7006 32.8053 25.7086 32.8308 25.7405C32.9107 25.8665 33.1981 25.9972 33.3435 25.9781C33.3578 25.9781 33.3435 25.9781 33.3131 25.9861C32.8468 26.1089 31.6841 26.9445 30.7403 29.0941C28.3048 34.6436 31.6762 39.123 35.4372 35.4042C42.3509 28.5711 46.2093 7.33795 28.4741 4.45956C20.409 3.15033 13.4442 7.44958 9.09224 14.042C0.353168 27.2794 5.66496 39.1677 8.10207 42.062C12.1187 46.8317 19.4779 49.1009 25.2001 46.1715C25.5914 45.9706 27.2859 44.3902 28.7248 45.5464C29.7405 46.3628 29.7214 47.9256 28.6705 48.6959C19.9171 55.1256 2.71042 50.4915 0.503291 33.7553C-2.02484 14.5905 14.1214 -4.96657 32.9762 1.50303C49.7117 7.24546 47.0158 29.7463 38.1442 38.3384C32.4076 43.8943 24.9973 39.1661 25.9699 31.5037C27.5302 19.1896 40.452 18.3428 35.8556 31.6775C29.7581 49.3704 1.93265 45.6644 10.3539 22.2003C12.5738 16.0162 17.6572 9.88146 24.6507 9.32811C31.6442 8.77475 34.8878 12.8651 35.6943 13.9319C36.528 15.0354 36.0888 16.6269 34.8032 17.1388C33.9711 17.4705 33.0209 17.2361 32.4395 16.5568C26.6119 9.73634 16.6048 14.0228 13.6343 25.0979V25.0963Z" fill="#090C1F"/>
<path d="M83.1899 19.5055C81.6855 18.9712 80.0805 18.6938 78.477 18.689V1.39313H74.4844V19.2694C73.0998 19.692 71.7886 20.3506 70.6291 21.2564C66.595 24.3596 65.1672 29.756 65.7613 34.6389C66.9735 44.604 78.5729 45.4987 78.477 38.3115V22.7522C79.5838 22.7634 80.7209 22.9627 81.8372 23.3566C91.9705 26.9319 89.7985 42.2264 89.7458 42.6793H93.9157C94.866 33.6104 92.7659 22.816 83.1899 19.5055ZM74.3966 38.7962C74.3455 38.8935 74.3135 38.9254 74.2001 38.9876C74.0883 39.0434 73.8823 39.0944 73.6204 39.0817C72.1974 38.9605 71.0891 37.8219 70.4566 36.5382C69.3355 34.1685 69.5032 31.1593 70.2554 28.6732C70.9933 26.2749 72.5424 24.5733 74.4844 23.6277V38.1105C74.486 38.321 74.4892 38.6208 74.3966 38.7962Z" fill="#090C1F"/>
<path d="M122.016 19.6333V42.6764H118.001V38.7136C116.155 41.525 113.201 43.276 109.278 43.276C102.863 43.276 97.6007 37.9769 97.6007 31.1549C97.6007 24.3329 102.863 19.0338 109.278 19.0338C113.201 19.0338 116.155 20.7847 118.001 23.5961V19.6333H122.016ZM118.001 31.1549C118.001 26.4538 114.448 22.9056 109.786 22.9056C105.124 22.9056 101.617 26.4538 101.617 31.1549C101.617 35.856 105.171 39.4041 109.786 39.4041C114.402 39.4041 118.001 35.856 118.001 31.1549Z" fill="#090C1F"/>
<path d="M146.894 28.5268V42.6748H142.879V28.7565C142.879 24.9771 140.71 22.8578 137.155 22.8578C133.6 22.8578 130.461 25.0233 130.461 30.4628V42.6764H126.446V19.6333H130.461V22.9519C132.169 20.2329 134.708 19.0338 137.939 19.0338C143.338 19.0338 146.894 22.6281 146.894 28.5268Z" fill="#090C1F"/>
<path d="M175.603 9.03424V42.6771H171.588V38.7143C169.741 41.5257 166.787 43.2767 162.865 43.2767C156.449 43.2767 151.187 37.9776 151.187 31.1556C151.187 24.3336 156.449 19.0345 162.865 19.0345C166.789 19.0345 169.741 20.7854 171.588 23.5968V9.03424H175.603ZM171.588 31.1556C171.588 26.4545 168.034 22.9063 163.372 22.9063C158.711 22.9063 155.204 26.4545 155.204 31.1556C155.204 35.8567 158.757 39.4048 163.372 39.4048C167.988 39.4048 171.588 35.8567 171.588 31.1556Z" fill="#090C1F"/>
<path d="M180.033 9.03424H184.048V42.6771H180.033V9.03424Z" fill="#090C1F"/>
<path d="M200.94 39.4966C204.125 39.4966 206.432 38.0215 207.587 36.1319L211.003 38.0678C208.972 41.2013 205.465 43.276 200.849 43.276C193.418 43.276 188.48 38.0678 188.48 31.1549C188.48 24.242 193.372 19.0338 200.573 19.0338C207.774 19.0338 212.065 24.7491 212.065 31.2011C212.065 31.8007 212.019 32.3987 211.926 32.9983H192.588C193.372 37.1461 196.649 39.4966 200.942 39.4966H200.94ZM192.586 29.4964H208.002C207.309 24.934 204.032 22.8131 200.571 22.8131C196.232 22.8131 193.233 25.4858 192.586 29.4964Z" fill="#090C1F"/>
<path d="M232.142 36.3615C232.142 40.648 228.449 43.2744 223.511 43.2744C218.896 43.2744 215.665 41.0626 214.327 37.8828L217.787 35.9006C218.525 38.1124 220.649 39.495 223.511 39.495C225.958 39.495 228.08 38.6195 228.08 36.3615C228.08 31.4308 215.157 34.2422 215.157 25.9004C215.157 21.8452 218.664 19.0338 223.326 19.0338C227.111 19.0338 230.157 20.8309 231.634 23.8273L228.264 25.717C227.387 23.644 225.356 22.7669 223.326 22.7669C221.296 22.7669 219.218 23.7811 219.218 25.8542C219.218 30.7849 232.142 27.8826 232.142 36.3615Z" fill="#090C1F"/>
</g>
<defs>
<clipPath id="clip0_16_947">
<rect width="231.9" height="51.2337" fill="white" transform="translate(0.241394 0.241394)"/>
</clipPath>
</defs>
</svg>
