<svg xmlns="http://www.w3.org/2000/svg" xmlns:xlink="http://www.w3.org/1999/xlink" viewBox="0 0 16 16"><path d="M 5 4 C 5.363 4 5.673 4.259 5.738 4.616 L 5.99 6.004 C 6.083 6.516 6.484 6.917 6.996 7.01 L 8.384 7.262 C 8.741 7.327 9 7.637 9 8 C 9 8.363 8.741 8.673 8.384 8.738 L 6.996 8.99 C 6.484 9.083 6.083 9.484 5.99 9.996 L 5.738 11.384 C 5.673 11.741 5.363 12 5 12 C 4.637 12 4.327 11.741 4.262 11.384 L 4.01 9.996 C 3.917 9.484 3.516 9.083 3.004 8.99 L 1.616 8.738 C 1.259 8.673 1 8.363 1 8 C 1 7.637 1.259 7.327 1.616 7.262 L 3.004 7.01 C 3.516 6.917 3.917 6.516 4.01 6.004 L 4.262 4.616 C 4.327 4.259 4.637 4 5 4 Z M 12 1 C 12.335 1 12.629 1.222 12.721 1.544 L 12.916 2.226 C 13.034 2.641 13.359 2.966 13.774 3.084 L 14.456 3.279 C 14.778 3.371 14.999 3.665 14.999 4 C 14.999 4.335 14.778 4.629 14.456 4.721 L 13.774 4.916 C 13.359 5.035 13.035 5.359 12.916 5.774 L 12.721 6.456 C 12.629 6.778 12.335 6.999 12 6.999 C 11.665 6.999 11.371 6.778 11.279 6.456 L 11.084 5.774 C 10.965 5.359 10.641 5.035 10.226 4.916 L 9.544 4.721 C 9.222 4.629 9.001 4.335 9.001 4 C 9.001 3.665 9.222 3.371 9.544 3.279 L 10.226 3.084 C 10.641 2.965 10.965 2.641 11.084 2.226 L 11.279 1.544 C 11.371 1.222 11.665 1 12 1 Z M 10 11 C 10.344 11 10.644 11.234 10.728 11.568 C 10.815 11.915 11.085 12.185 11.432 12.272 C 11.767 12.355 12.002 12.655 12.002 13 C 12.002 13.345 11.767 13.645 11.432 13.728 C 11.085 13.815 10.815 14.085 10.728 14.432 C 10.645 14.767 10.345 15.002 10 15.002 C 9.655 15.002 9.355 14.767 9.272 14.432 C 9.185 14.085 8.915 13.815 8.568 13.728 C 8.233 13.645 7.998 13.345 7.998 13 C 7.998 12.655 8.233 12.355 8.568 12.272 C 8.915 12.185 9.185 11.915 9.272 11.568 C 9.356 11.234 9.656 11 10 11 Z" fill="rgb(6, 176, 145)"></path></svg>